<svg id="Livello_1" data-name="Livello 1" xmlns="http://www.w3.org/2000/svg" viewBox="0 0 271.13 45.08"><defs><style>.cls-1{fill:#4694b1;}.cls-2{fill:#a0acb9;}</style></defs><title>CARDTRADERLOGO</title><path class="cls-1" d="M112.26,22.93l-1.14,2L110,27a.64.64,0,0,1-.62.33h-1.65c-2.22,0-4.43,0-6.64,0a.69.69,0,0,1-.66-1.1c1.21-2.14,2.41-4.29,3.61-6.43s2.27-4.06,3.4-6.09,2.23-4,3.33-5.93c.41-.73.82-1.46,1.22-2.2a1.1,1.1,0,0,1,.09-.14c.17-.27.25-.28.41,0l.8,1.41q1.48,2.65,3,5.31l3,5.26c1,1.72,2,3.44,2.91,5.16.7,1.24,1.41,2.47,2.1,3.72a.65.65,0,0,1-.62,1c-2.76,0-5.52,0-8.27,0a.93.93,0,0,1-.91-.55c-.68-1.24-1.38-2.46-2.07-3.7Z" transform="translate(-8.95 -5.2)"/><path class="cls-2" d="M127.71,32.56c.2-.36.39-.68.58-1l1.68-3a.71.71,0,0,1,.7-.38H139c.72,0,1,.45.63,1.09-1.06,1.89-2.14,3.78-3.2,5.68-1.26,2.22-2.5,4.45-3.75,6.68l-3.16,5.58-1.6,2.85c0,.07-.13.13-.19.2a1.07,1.07,0,0,1-.18-.19l-3.23-5.77c-1.14-2-2.28-4-3.41-6.08s-2.27-4.06-3.4-6.09c-.55-1-1.1-2-1.64-2.94a.62.62,0,0,1,.59-1h8.3a.8.8,0,0,1,.76.45c.69,1.25,1.39,2.49,2.09,3.73Z" transform="translate(-8.95 -5.2)"/><path class="cls-2" d="M213.85,27.55v-9c0-.68.21-.89.88-.89,2.65,0,5.3,0,8,0a9.37,9.37,0,0,1,6,2.16,9.54,9.54,0,0,1,3.5,6.5,10,10,0,0,1-1.59,6.85,9.35,9.35,0,0,1-6.85,4.18,7.66,7.66,0,0,1-1.17.07h-7.81c-.69,0-.88-.19-.88-.88Zm4.62,0V32.7c0,.18,0,.35.26.34,1.5,0,3,.05,4.49-.07a4.63,4.63,0,0,0,4.18-3.28,6.25,6.25,0,0,0,.3-3,5.32,5.32,0,0,0-1.4-3.14,5.12,5.12,0,0,0-3.78-1.52c-1.22,0-2.43,0-3.65,0-.39,0-.4,0-.4.4Z" transform="translate(-8.95 -5.2)"/><path class="cls-1" d="M78.37,27.5V18.67c0-.66.19-.84.85-.84,2.64,0,5.29,0,7.93,0A8.86,8.86,0,0,1,92.86,20a9.11,9.11,0,0,1,3.22,5.88A9.75,9.75,0,0,1,93.88,34,8.88,8.88,0,0,1,88,37.09a19.53,19.53,0,0,1-2.16.11H79.4a2.54,2.54,0,0,1-.39,0c-.48-.08-.64-.26-.64-.75Zm4.51,0v5c0,.35,0,.37.37.37,1.15,0,2.3,0,3.45,0a6.14,6.14,0,0,0,1.21-.13A4.54,4.54,0,0,0,91.37,30a6.26,6.26,0,0,0,.11-4.66,4.5,4.5,0,0,0-2.25-2.61,6,6,0,0,0-2.7-.6c-1.07,0-2.14,0-3.22,0-.43,0-.43,0-.43.42Z" transform="translate(-8.95 -5.2)"/><path class="cls-2" d="M274.79,30.12l.89,1.13,4.18,5.22a.61.61,0,0,1,.16.7c-.13.25-.38.26-.62.26h-3.62a1.07,1.07,0,0,1-.92-.43c-1.38-1.73-2.77-3.45-4.15-5.17-.19-.23-.36-.47-.57-.68a.78.78,0,0,0-.43-.2c-.36,0-.72,0-1.09,0s-.36.09-.36.37c0,1.72,0,3.45,0,5.18v.31a.59.59,0,0,1-.6.63c-1.14,0-2.27,0-3.4,0a.63.63,0,0,1-.62-.63,2.53,2.53,0,0,1,0-.28V18.58c0-.71.21-.92.92-.92,2.29,0,4.58,0,6.87,0a6.65,6.65,0,0,1,6,3.5,6.29,6.29,0,0,1-.6,7.27,6.59,6.59,0,0,1-1.72,1.48C275,30,274.92,30,274.79,30.12ZM270.08,27c.41,0,.82,0,1.23,0a3,3,0,0,0,1-.2,2.52,2.52,0,0,0,1.3-2.85,2.24,2.24,0,0,0-2-1.9c-1.05-.09-2.11,0-3.16,0-.2,0-.21.14-.21.3v4.41c0,.22.08.3.3.3Z" transform="translate(-8.95 -5.2)"/><path class="cls-2" d="M162.62,27.53v-9c0-.62.21-.84.83-.84,2.35,0,4.7,0,7.05,0a6.79,6.79,0,0,1,4.39,1.66,6.52,6.52,0,0,1,2.32,4.28,6.17,6.17,0,0,1-1.35,4.74A6.72,6.72,0,0,1,174,30c-.19.11-.22.2-.07.39q2.47,3.07,4.92,6.16.45.57-.06.84a.69.69,0,0,1-.32.08h-3.8a1,1,0,0,1-.83-.42c-1.58-2-3.15-3.92-4.74-5.87a.56.56,0,0,0-.38-.19c-.37,0-.74,0-1.11,0s-.36.1-.36.37q0,2.58,0,5.16c0,.1,0,.21,0,.31a.64.64,0,0,1-.71.66h-3.19c-.5,0-.72-.24-.72-.75Zm4.63-3.09c0,.72,0,1.44,0,2.16,0,.26.09.35.35.35h2.87a2,2,0,0,0,1.56-.77,2.68,2.68,0,0,0,.59-1.91,2.38,2.38,0,0,0-2.35-2.32h-2.67c-.26,0-.35.09-.35.35C167.25,23,167.25,23.72,167.25,24.44Z" transform="translate(-8.95 -5.2)"/><path class="cls-1" d="M56.69,27.51V18.67c0-.67.18-.84.84-.84h6.73a6.53,6.53,0,0,1,4.41,1.67A6.39,6.39,0,0,1,70.88,25a5.58,5.58,0,0,1-1.7,3.66,15,15,0,0,1-1.45,1.19c-.19.15-.15.25,0,.39l2.48,3.12,2.23,2.81a1.2,1.2,0,0,1,.16.27.44.44,0,0,1-.32.69,1.91,1.91,0,0,1-.48.05h-3a1.56,1.56,0,0,1-1.33-.66c-1.43-1.82-2.89-3.62-4.33-5.44a.68.68,0,0,0-.63-.29c-.27,0-.55,0-.82,0s-.41,0-.41.39v5.1c0,.62-.26.87-.87.88H57.51c-.61,0-.82-.23-.82-.83Zm4.51-3c0,.71,0,1.42,0,2.13,0,.23.08.32.32.32.85,0,1.71,0,2.56,0a2.21,2.21,0,0,0,1.53-.6,2.57,2.57,0,0,0,.69-2.59A2.22,2.22,0,0,0,64.08,22c-.84.05-1.69,0-2.53,0-.26,0-.36.09-.35.35C61.21,23.09,61.2,23.79,61.2,24.5Z" transform="translate(-8.95 -5.2)"/><path class="cls-2" d="M195.56,17.66c.72,0,1.44,0,2.16,0a.91.91,0,0,1,1,.73l3.06,9.22q1.15,3.53,2.33,7.06c.22.66.43,1.32.64,2a.54.54,0,0,1-.56.78h-3.65c-.43,0-.66-.21-.8-.67-.21-.71-.43-1.42-.64-2.13a.34.34,0,0,0-.38-.28h-6.36a.36.36,0,0,0-.41.3c-.2.68-.41,1.35-.6,2s-.39.76-1,.76h-3.31a1.62,1.62,0,0,1-.31,0,.49.49,0,0,1-.45-.58,1.83,1.83,0,0,1,.09-.39q1.5-4.55,3-9.09l2.46-7.43c.17-.51.33-1,.49-1.52a.93.93,0,0,1,1-.74Zm0,5.16c0,.07-.07.08-.07.1-.69,2.27-1.37,4.54-2.06,6.81-.09.31-.06.35.27.35h3.71l.33,0Z" transform="translate(-8.95 -5.2)"/><path class="cls-1" d="M26.2,25.07c-.5,0-1,0-1.51,0a1,1,0,0,1-.94-.56,5.56,5.56,0,0,0-.55-.9,4.41,4.41,0,0,0-2.39-1.55,5.93,5.93,0,0,0-5.34.9,5,5,0,0,0-1.87,3.1,6.77,6.77,0,0,0,.22,3.65A5,5,0,0,0,17.54,33a5.94,5.94,0,0,0,4.24-.47,4.27,4.27,0,0,0,1.92-1.93A1,1,0,0,1,24.78,30c1,0,2,0,3,0,.57,0,.79.27.64.82a8.81,8.81,0,0,1-1.88,3.48A9.46,9.46,0,0,1,21,37.4a10.65,10.65,0,0,1-6.32-.76A9.44,9.44,0,0,1,10,32.24a9.94,9.94,0,0,1-1-3.7,10.43,10.43,0,0,1,1.11-5.91,9.42,9.42,0,0,1,3.78-3.88,10.32,10.32,0,0,1,4.37-1.27,10,10,0,0,1,7,2,8.94,8.94,0,0,1,3.23,4.68c.16.55-.09.91-.67.91Z" transform="translate(-8.95 -5.2)"/><path class="cls-1" d="M48.31,37.2H46.77a.85.85,0,0,1-1-.75c-.21-.68-.42-1.36-.62-2a.32.32,0,0,0-.36-.28H38.6a.35.35,0,0,0-.38.29c-.19.69-.4,1.37-.6,2-.16.52-.36.72-.88.73H33.4a2.17,2.17,0,0,1-.25,0,.5.5,0,0,1-.43-.71c.1-.36.21-.71.33-1.06q1.08-3.26,2.15-6.52l2.43-7.39c.33-1,.65-2,1-3a.81.81,0,0,1,.91-.65h4.34a.8.8,0,0,1,.92.67q1.53,4.65,3.07,9.3c.75,2.28,1.49,4.57,2.24,6.85.19.57.37,1.14.55,1.71s0,.76-.48.8-1.23,0-1.85,0ZM41.74,23h-.09c-.1.35-.21.7-.32,1.05-.55,1.86-1.11,3.73-1.67,5.59-.09.33-.07.36.27.36h3.54c.33,0,.34,0,.25-.34-.51-1.7-1-3.4-1.52-5.1C42.05,24,41.89,23.48,41.74,23Z" transform="translate(-8.95 -5.2)"/><path class="cls-2" d="M241.91,27.54v-9c0-.66.21-.87.86-.87h10.15c.68,0,.91.24.91.91,0,.87,0,1.75,0,2.62,0,.65-.21.86-.85.86h-6c-.39,0-.4,0-.4.4V24.9c0,.38,0,.39.41.39h5.22a1.93,1.93,0,0,1,.42,0,.57.57,0,0,1,.51.6c0,1,0,2,0,3.05a.61.61,0,0,1-.67.59h-5.5c-.37,0-.39,0-.39.39v2.68c0,.39,0,.4.4.4h6.19a1.13,1.13,0,0,1,.52.1.54.54,0,0,1,.31.53v3.11a.62.62,0,0,1-.6.64H242.74a1.42,1.42,0,0,1-.5-.08.65.65,0,0,1-.33-.67V27.54Z" transform="translate(-8.95 -5.2)"/><path class="cls-2" d="M148.93,29.54v7a1.51,1.51,0,0,1,0,.37.62.62,0,0,1-.64.57H145a.63.63,0,0,1-.66-.56,3.19,3.19,0,0,1,0-.54c0-4.6,0-9.21,0-13.81,0-.47,0-.47-.48-.47h-3.25c-.6,0-.83-.23-.84-.82V18.47a.72.72,0,0,1,.79-.81c.38,0,.76,0,1.14,0h10.89a2.67,2.67,0,0,1,.4,0,.62.62,0,0,1,.58.66c0,1,0,2,0,3.05a.62.62,0,0,1-.71.67h-3.45c-.39,0-.4,0-.4.4Z" transform="translate(-8.95 -5.2)"/></svg>